<svg version="1.1" id="Layer_1" xmlns="http://www.w3.org/2000/svg" xmlns:xlink="http://www.w3.org/1999/xlink" x="0px" y="0px"
	 width="100%" viewBox="0 0 400 400" enable-background="new 0 0 400 400" xml:space="preserve">
<path fill="#213873" opacity="1.000000" stroke="none" 
	d="
M0.999999,222.000000 
	C1.000000,208.312439 1.000000,194.624878 1.387303,180.295837 
	C2.628069,173.186981 2.697318,166.491959 4.494950,160.298615 
	C8.485581,146.549728 12.885819,132.879349 17.954182,119.493179 
	C25.458067,99.674515 37.534817,82.522507 51.702785,66.979706 
	C61.777443,55.927425 72.827888,45.880619 85.153244,37.141323 
	C108.916321,20.292105 135.018005,9.393714 163.534012,4.003095 
	C169.016006,2.966788 174.511002,1.999258 180.000000,1.000000 
	C193.687561,1.000000 207.375122,1.000000 221.704132,1.387285 
	C226.584030,2.198630 230.909729,2.220511 235.045547,3.117698 
	C251.297897,6.643329 267.270874,10.879048 282.621918,17.687332 
	C301.986145,26.275497 319.478546,37.537418 335.022583,51.703869 
	C346.076050,61.777737 356.118378,72.832458 364.858612,85.155312 
	C381.711060,108.915482 392.606567,135.018692 397.996887,163.534302 
	C399.033142,169.016220 400.000732,174.511093 401.000000,180.000000 
	C401.000000,193.687561 401.000000,207.375122 400.612701,221.704132 
	C399.801361,226.583969 399.779541,230.909637 398.882355,235.045410 
	C395.356720,251.297745 391.120941,267.270691 384.312683,282.621735 
	C375.724579,301.986053 364.462646,319.478455 350.296173,335.022522 
	C340.222351,346.076050 329.167603,356.118347 316.844757,364.858612 
	C293.084564,381.711029 266.981354,392.606567 238.465698,397.996887 
	C232.983795,399.033142 227.488907,400.000732 222.000000,401.000000 
	C208.312439,401.000000 194.624878,401.000000 180.295868,400.612732 
	C175.416000,399.801361 171.090332,399.779449 166.954529,398.882263 
	C150.702179,395.356659 134.729187,391.120972 119.378143,384.312714 
	C100.013893,375.724579 82.521515,364.462646 66.977478,350.296173 
	C55.924046,340.222290 45.881554,329.167725 37.141342,316.844788 
	C20.289030,293.084503 9.393435,266.981323 4.003085,238.465714 
	C2.966828,232.983810 1.999256,227.488907 0.999999,222.000000 
M304.459473,246.166779 
	C306.902069,246.166779 309.344635,246.166779 311.870605,246.166779 
	C311.870605,225.044601 311.870605,204.480103 311.870605,183.494400 
	C309.771423,183.494400 307.965027,183.500076 306.158691,183.493561 
	C263.285217,183.338959 220.647293,186.433136 178.307205,193.177979 
	C149.372681,197.787323 120.820900,204.121262 93.112709,213.822952 
	C91.583214,214.358490 89.381027,216.054520 89.340576,217.271835 
	C89.026581,226.718506 89.167259,236.180283 89.167259,246.166779 
	C160.918762,246.166779 232.194977,246.166779 304.459473,246.166779 
M210.501541,91.991501 
	C205.182831,91.991501 199.864120,91.991501 195.991516,91.991501 
	C195.991516,103.028114 195.991516,113.889877 195.991516,124.751640 
	C195.991516,135.739868 195.991516,146.728104 195.991516,157.846069 
	C202.800247,157.846069 210.804123,158.194870 218.759659,157.724976 
	C224.174942,157.405090 229.737198,156.580048 234.859543,154.863968 
	C249.391037,149.995667 257.991608,136.839615 257.111694,121.884567 
	C256.297302,108.042770 246.053345,96.247810 231.340256,93.354248 
	C224.886780,92.085068 218.122314,92.397324 210.501541,91.991501 
M303.629028,166.463913 
	C299.640015,166.579391 295.651581,166.719437 291.661926,166.806580 
	C245.990158,167.804489 200.737488,172.331818 156.235397,183.042053 
	C136.622879,187.762146 117.478630,193.891190 99.293098,203.152725 
	C168.713623,182.666946 239.721451,174.910507 311.832092,176.219772 
	C311.832092,172.752747 311.832092,169.882599 311.832092,166.905411 
	C309.164124,166.743103 306.844452,166.601974 303.629028,166.463913 
M132.445648,101.638359 
	C132.445648,106.299011 132.485168,110.960083 132.437012,115.620232 
	C132.349518,124.083763 132.512634,132.565765 131.982697,141.003113 
	C131.644684,146.384750 128.368988,150.173767 123.117928,151.953888 
	C111.711525,155.820602 102.861877,149.587250 102.616440,137.135529 
	C102.360619,124.157188 102.495049,111.169312 102.623093,98.187218 
	C102.642899,96.178879 103.541443,94.179199 104.048248,92.115952 
	C98.881119,92.115952 93.425514,92.115952 88.569275,92.115952 
	C88.987656,94.699158 89.717140,97.206169 89.745415,99.721077 
	C89.872681,111.038475 89.753525,122.358444 89.833015,133.676712 
	C89.853920,136.652664 89.880173,139.719086 90.569595,142.583786 
	C93.226852,153.625259 104.865852,160.134537 118.663559,158.546936 
	C131.944992,157.018753 138.254196,150.086685 138.523346,136.351578 
	C138.764481,124.045143 138.718567,111.733253 138.907333,99.425430 
	C138.944077,97.029785 139.477524,94.641762 139.796234,92.137421 
	C137.196091,92.137421 134.066330,92.137421 131.341309,92.137421 
	C131.716431,95.041191 132.081070,97.863808 132.445648,101.638359 
M293.100403,144.298218 
	C294.190094,148.711380 298.738037,152.423264 295.670593,157.611023 
	C301.851135,157.611023 307.891479,157.611023 313.571198,157.611023 
	C311.753479,154.272446 309.724518,151.105621 308.228455,147.704391 
	C300.406586,129.921906 292.725433,112.077591 284.974487,94.263832 
	C284.441284,93.038429 283.737793,91.887115 282.880646,90.259102 
	C272.769714,113.350395 262.984711,135.697311 253.345108,157.712204 
	C256.148926,157.712204 259.792084,157.712204 262.678314,157.712204 
	C262.818024,155.379333 262.577026,153.175934 263.154175,151.213104 
	C264.039551,148.201996 265.207123,145.187851 266.814209,142.510742 
	C267.633850,141.145386 269.623810,139.779938 271.167267,139.679276 
	C276.471985,139.333252 281.825500,139.764297 287.135864,139.464523 
	C290.419891,139.279144 292.073944,140.594925 293.100403,144.298218 
M169.888306,132.524078 
	C175.351028,136.488754 176.915176,140.779343 174.866806,146.180573 
	C173.025681,151.035339 168.476990,153.565109 162.375870,153.229431 
	C157.147095,152.941757 153.253036,150.322388 150.254440,146.270355 
	C148.830048,144.345551 147.734665,142.177261 146.354233,139.894379 
	C144.296204,153.632782 146.354599,156.566666 159.549713,158.165421 
	C163.118454,158.597809 166.884323,158.562180 170.414078,157.929276 
	C179.222107,156.349960 186.003311,149.364716 187.033356,141.459427 
	C188.309799,131.663132 185.046432,125.484192 175.901489,120.739967 
	C171.331604,118.369194 166.561615,116.375443 162.046448,113.910217 
	C156.427979,110.842621 154.651245,106.758430 156.474030,102.104584 
	C158.337845,97.346016 163.594482,95.228256 169.472519,96.695099 
	C175.192261,98.122429 178.648056,102.137115 181.496719,107.353752 
	C183.199615,94.262009 180.622620,91.213516 168.135605,90.993698 
	C166.804214,90.970261 165.463425,90.946388 164.140411,91.068359 
	C155.317627,91.881828 148.122726,97.445358 146.320435,104.798790 
	C144.324738,112.941467 147.314301,119.894516 155.565445,125.018135 
	C159.922897,127.723930 164.683365,129.780716 169.888306,132.524078 
M160.213638,176.116989 
	C137.105438,169.503677 113.465416,167.224289 89.495926,166.781799 
	C89.495926,170.172531 89.495926,172.890381 89.495926,174.678604 
	C114.265717,175.677109 138.633575,176.659424 163.847305,177.675827 
	C162.355774,177.010376 161.639130,176.690643 160.213638,176.116989 
M177.395660,287.005768 
	C178.202896,286.955231 179.010132,286.904663 180.499573,286.811401 
	C178.789581,284.113495 177.320557,281.795776 175.772934,279.354034 
	C176.723450,278.330109 177.737274,277.465668 178.472229,276.407532 
	C181.981903,271.354675 179.674408,264.353302 173.777054,263.494385 
	C168.982666,262.796082 164.005539,263.352539 159.360443,263.352539 
	C159.360443,271.462402 159.360443,279.186981 159.360443,286.701813 
	C161.499374,286.701813 163.267776,286.701813 165.006485,286.701813 
	C165.170837,284.326843 165.314041,282.257385 165.457245,280.187927 
	C165.863144,279.922058 166.269043,279.656189 166.674927,279.390320 
	C168.157181,280.829926 169.524872,282.418915 171.153458,283.667725 
	C172.829941,284.953217 174.760773,285.907074 177.395660,287.005768 
M88.990005,310.564972 
	C88.990005,315.979553 88.990005,321.394165 88.990005,327.122772 
	C96.722443,326.568604 104.599632,328.898071 109.423019,321.077545 
	C111.966942,316.952911 111.587967,311.024261 108.557426,307.473602 
	C103.165047,301.155762 95.970093,303.364105 88.990005,303.035309 
	C88.990005,305.627045 88.990005,307.605469 88.990005,310.564972 
M242.572189,327.004608 
	C245.306870,327.432709 246.562454,326.446136 246.227600,323.518799 
	C246.020706,321.710083 245.802826,319.737396 246.317444,318.061768 
	C246.757721,316.628204 248.233932,315.512787 249.251968,314.256683 
	C250.101715,315.498535 251.513351,316.667511 251.685822,317.997223 
	C252.060120,320.883270 251.801239,323.851410 251.801239,326.734253 
	C254.201111,326.734253 255.945618,326.734253 258.005920,326.734253 
	C258.005920,323.163635 258.048370,319.858551 257.996979,316.554962 
	C257.892426,309.836304 253.974930,307.428284 247.679825,310.114685 
	C246.759109,310.507629 245.672806,310.875214 244.718643,310.766602 
	C239.572556,310.180725 234.444000,309.440979 229.057098,308.720551 
	C229.057098,315.127319 229.057098,320.868408 229.057098,326.627502 
	C231.182480,326.627502 233.035141,326.627502 235.008224,326.627502 
	C235.008224,323.589722 234.710831,320.880829 235.125732,318.285828 
	C235.355011,316.851807 236.778107,315.608643 237.663055,314.279449 
	C238.439606,315.548645 239.620224,316.736664 239.895355,318.106567 
	C240.281372,320.028564 239.815262,322.108765 240.068268,324.075684 
	C240.199905,325.099060 241.092468,326.024506 242.572189,327.004608 
M223.399597,323.707550 
	C226.928162,316.600830 224.222794,309.333679 217.815750,309.080292 
	C213.991760,308.929047 210.147400,309.292572 206.152863,309.430206 
	C206.152863,316.822296 206.152863,324.333862 206.152863,331.746277 
	C208.270920,331.746277 210.036865,331.746277 211.992950,331.746277 
	C211.992950,329.514923 211.992950,327.545502 211.992950,324.959656 
	C216.071304,327.786438 219.704117,327.763245 223.399597,323.707550 
M117.050949,186.277039 
	C124.049507,185.358047 131.048065,184.439056 138.046631,183.520065 
	C137.997787,183.027176 137.948944,182.534302 137.900101,182.041412 
	C121.764572,182.041412 105.629044,182.041412 89.393219,182.041412 
	C89.393219,185.291519 89.393219,188.032913 89.393219,190.748703 
	C98.498444,189.280289 107.338844,187.854568 117.050949,186.277039 
M223.550629,268.985229 
	C221.656219,269.370453 219.761810,269.755646 217.961258,270.121796 
	C217.551437,277.903534 225.731781,270.723236 226.710403,275.899414 
	C224.554596,276.024414 221.981033,275.446655 220.425766,276.448975 
	C218.507751,277.685059 216.389435,280.210693 216.340424,282.227234 
	C216.302963,283.769470 219.153580,286.394684 221.058548,286.757324 
	C224.843353,287.477814 228.861893,286.970398 233.206970,286.970398 
	C233.206970,283.812927 233.225677,281.015900 233.203293,278.219208 
	C233.147720,271.275513 231.533569,269.588837 223.550629,268.985229 
M124.358871,327.002899 
	C126.678093,326.106628 128.997314,325.210327 131.316544,324.314056 
	C131.225769,323.676178 131.134979,323.038300 131.044189,322.400452 
	C127.683296,322.049957 124.322403,321.699493 120.961510,321.349030 
	C121.017700,320.870941 121.073891,320.392883 121.130081,319.914795 
	C124.707855,319.914795 128.285645,319.914795 131.869705,319.914795 
	C131.602982,313.210602 129.369492,309.960205 124.716118,309.116058 
	C119.664780,308.199707 114.850136,311.454376 113.968178,316.381653 
	C112.946411,322.089996 116.339340,325.856293 124.358871,327.002899 
M154.764389,312.445282 
	C151.876816,317.778412 152.337173,321.930511 156.141541,324.865479 
	C160.381592,328.136627 165.780640,327.642303 171.063217,322.545563 
	C166.716522,322.091492 163.353241,321.740143 159.989975,321.388794 
	C160.030487,320.953644 160.071014,320.518524 160.111526,320.083374 
	C163.652283,320.083374 167.193039,320.083374 170.866501,320.083374 
	C171.069580,315.562958 170.053574,312.002686 166.221451,310.037933 
	C162.256012,308.004822 158.501114,308.694824 154.764389,312.445282 
M267.125153,321.156403 
	C270.709564,320.557587 274.293945,319.958740 277.877411,319.354370 
	C277.495178,313.026398 275.248016,309.870636 270.573364,309.096893 
	C266.257812,308.382629 262.035797,310.598694 260.512085,314.629578 
	C258.924011,318.830719 259.846466,322.496979 263.593567,325.151459 
	C267.884003,328.190796 272.914429,327.541992 278.246979,322.345215 
	C273.942413,322.113312 270.833649,321.945831 267.125153,321.156403 
M202.149826,314.642914 
	C198.443756,309.068878 193.284225,307.410065 188.150925,310.142151 
	C183.872665,312.419159 182.016769,316.938019 183.687302,321.010406 
	C185.546936,325.543793 190.719910,328.020599 195.633118,326.729980 
	C200.948746,325.333649 203.432968,321.200348 202.149826,314.642914 
M198.645065,286.986969 
	C199.130737,286.644775 200.034119,286.309174 200.039658,285.959351 
	C200.128220,280.369904 200.102097,274.778625 200.102097,269.284973 
	C197.765259,269.284973 196.019531,269.284973 193.994354,269.284973 
	C193.994354,272.373016 194.253159,275.213104 193.882812,277.968628 
	C193.703369,279.303772 192.344070,280.480316 191.518921,281.728668 
	C190.680878,280.522949 189.280899,279.387756 189.118973,278.097229 
	C188.754868,275.195557 189.004807,272.216827 189.004807,269.238190 
	C186.717804,269.238190 184.969513,269.238190 182.860596,269.238190 
	C182.860596,273.424469 182.722122,277.388672 182.901978,281.338318 
	C183.061798,284.847443 185.351379,287.581238 188.598663,286.754364 
	C191.906113,285.912170 194.727737,286.620575 198.645065,286.986969 
M298.221161,311.712280 
	C296.879150,310.829895 295.580750,309.282990 294.186829,309.191498 
	C290.233856,308.932007 286.241821,309.267609 282.063171,309.373993 
	C282.063171,315.126282 282.063171,320.868500 282.063171,326.805176 
	C284.058380,326.805176 285.806213,326.805176 288.011169,326.805176 
	C288.011169,323.669220 287.748291,320.674652 288.134033,317.766083 
	C288.299988,316.514832 289.810913,315.442017 290.710785,314.288116 
	C291.469299,315.404480 292.762299,316.466614 292.882202,317.647797 
	C293.192719,320.707062 292.986359,323.818756 292.986359,327.082642 
	C295.474548,326.958527 297.231140,326.870911 299.410156,326.762207 
	C299.148071,321.689850 298.909058,317.064026 298.221161,311.712280 
M144.130966,313.467712 
	C143.607208,314.920197 143.083450,316.372711 142.236420,318.721710 
	C140.741837,314.861603 139.588486,311.882782 138.435425,308.904724 
	C136.162827,309.011169 134.286499,309.099060 132.038712,309.204346 
	C134.598282,315.482239 136.948914,321.247681 139.651886,327.877258 
	C141.950546,326.884766 144.860107,326.570404 145.580246,325.147736 
	C148.132370,320.106049 149.936707,314.685822 152.083710,309.259094 
	C148.316513,308.755493 145.046036,308.095825 144.130966,313.467712 
M303.815735,318.577454 
	C303.925232,320.226196 303.397247,322.609985 304.275818,323.371887 
	C306.153198,325.000031 308.682709,326.340027 311.100281,326.673737 
	C312.206512,326.826385 313.679626,324.321075 314.986359,323.021210 
	C314.821228,322.578827 314.656097,322.136414 314.490967,321.694031 
	C307.738464,321.888672 310.548126,317.466797 309.925446,314.073364 
	C314.004303,314.667908 314.888977,312.798218 313.225494,310.184998 
	C311.763702,308.580658 310.301910,306.976318 308.353424,304.837830 
	C307.652802,304.837830 305.905701,304.837830 304.057526,304.837830 
	C303.955017,305.747101 304.119354,306.591919 303.771271,307.007812 
	C301.309723,309.948822 301.088989,312.775818 303.744415,315.740692 
	C304.077820,316.112915 303.806610,317.026672 303.815735,318.577454 
M203.903595,269.862213 
	C203.903595,275.442780 203.903595,281.023346 203.903595,286.670410 
	C206.151733,286.670410 208.015549,286.670410 210.047287,286.670410 
	C209.874802,281.402130 208.998932,276.042542 215.903091,274.757446 
	C215.782501,272.647552 215.684052,270.925018 215.543259,268.461731 
	C213.413300,269.578247 211.884827,270.379486 210.356339,271.180695 
	C210.411682,270.757080 210.467010,270.333466 210.522354,269.909851 
	C208.495270,269.649567 206.468201,269.389282 203.903595,269.862213 
M180.177704,306.556885 
	C180.067612,305.288513 179.957535,304.020111 179.828384,302.532166 
	C177.732559,302.647217 176.001083,302.742249 174.332520,302.833832 
	C174.332520,311.133301 174.332520,319.004150 174.332520,327.050903 
	C176.427582,326.947937 178.177750,326.861938 180.177994,326.763611 
	C180.177994,320.103180 180.177994,313.822937 180.177704,306.556885 
M237.002014,278.451172 
	C237.002014,281.216370 237.002014,283.981537 237.002014,286.748474 
	C239.308838,286.748474 241.050446,286.748474 242.879822,286.748474 
	C242.879822,278.628998 242.879822,270.760101 242.879822,262.850647 
	C240.839401,262.850647 239.104645,262.850647 237.002014,262.850647 
	C237.002014,267.897400 237.002014,272.679932 237.002014,278.451172 
z"/>
<path fill="#FFFFFF" opacity="1.000000" stroke="none" 
	d="
M401.000000,179.531342 
	C400.000732,174.511093 399.033142,169.016220 397.996887,163.534302 
	C392.606567,135.018692 381.711060,108.915482 364.858612,85.155312 
	C356.118378,72.832458 346.076050,61.777737 335.022583,51.703869 
	C319.478546,37.537418 301.986145,26.275497 282.621918,17.687332 
	C267.270874,10.879048 251.297897,6.643329 235.045547,3.117698 
	C230.909729,2.220511 226.584030,2.198630 222.172791,1.387285 
	C281.593689,1.000000 341.187347,1.000000 401.000000,1.000000 
	C401.000000,60.354050 401.000000,119.708366 401.000000,179.531342 
z"/>
<path fill="#FFFFFF" opacity="1.000000" stroke="none" 
	d="
M222.468658,401.000000 
	C227.488907,400.000732 232.983795,399.033142 238.465698,397.996887 
	C266.981354,392.606567 293.084564,381.711029 316.844757,364.858612 
	C329.167603,356.118347 340.222351,346.076050 350.296173,335.022522 
	C364.462646,319.478455 375.724579,301.986053 384.312683,282.621735 
	C391.120941,267.270691 395.356720,251.297745 398.882355,235.045410 
	C399.779541,230.909637 399.801361,226.583969 400.612701,222.172791 
	C401.000000,281.593689 401.000000,341.187378 401.000000,401.000000 
	C341.645966,401.000000 282.291626,401.000000 222.468658,401.000000 
z"/>
<path fill="#FFFFFF" opacity="1.000000" stroke="none" 
	d="
M0.999999,222.468658 
	C1.999256,227.488907 2.966828,232.983810 4.003085,238.465714 
	C9.393435,266.981323 20.289030,293.084503 37.141342,316.844788 
	C45.881554,329.167725 55.924046,340.222290 66.977478,350.296173 
	C82.521515,364.462646 100.013893,375.724579 119.378143,384.312714 
	C134.729187,391.120972 150.702179,395.356659 166.954529,398.882263 
	C171.090332,399.779449 175.416000,399.801361 179.827209,400.612732 
	C120.406311,401.000000 60.812622,401.000000 1.000000,401.000000 
	C1.000000,341.645966 1.000000,282.291626 0.999999,222.468658 
z"/>
<path fill="#FFFFFF" opacity="1.000000" stroke="none" 
	d="
M179.531342,1.000000 
	C174.511002,1.999258 169.016006,2.966788 163.534012,4.003095 
	C135.018005,9.393714 108.916321,20.292105 85.153244,37.141323 
	C72.827888,45.880619 61.777443,55.927425 51.702785,66.979706 
	C37.534817,82.522507 25.458067,99.674515 17.954182,119.493179 
	C12.885819,132.879349 8.485581,146.549728 4.494950,160.298615 
	C2.697318,166.491959 2.628069,173.186981 1.387303,179.827179 
	C1.000000,120.406311 1.000000,60.812622 1.000000,1.000000 
	C60.354050,1.000000 119.708366,1.000000 179.531342,1.000000 
z"/>
<path fill="#FEFEFE" opacity="1.000000" stroke="none" 
	d="
M303.965332,246.166779 
	C232.194977,246.166779 160.918762,246.166779 89.167259,246.166779 
	C89.167259,236.180283 89.026581,226.718506 89.340576,217.271835 
	C89.381027,216.054520 91.583214,214.358490 93.112709,213.822952 
	C120.820900,204.121262 149.372681,197.787323 178.307205,193.177979 
	C220.647293,186.433136 263.285217,183.338959 306.158691,183.493561 
	C307.965027,183.500076 309.771423,183.494400 311.870605,183.494400 
	C311.870605,204.480103 311.870605,225.044601 311.870605,246.166779 
	C309.344635,246.166779 306.902069,246.166779 303.965332,246.166779 
z"/>
<path fill="#FAFBFC" opacity="1.000000" stroke="none" 
	d="
M211.000305,91.991501 
	C218.122314,92.397324 224.886780,92.085068 231.340256,93.354248 
	C246.053345,96.247810 256.297302,108.042770 257.111694,121.884567 
	C257.991608,136.839615 249.391037,149.995667 234.859543,154.863968 
	C229.737198,156.580048 224.174942,157.405090 218.759659,157.724976 
	C210.804123,158.194870 202.800247,157.846069 195.991516,157.846069 
	C195.991516,146.728104 195.991516,135.739868 195.991516,124.751640 
	C195.991516,113.889877 195.991516,103.028114 195.991516,91.991501 
	C199.864120,91.991501 205.182831,91.991501 211.000305,91.991501 
M238.870865,107.776573 
	C231.287323,96.962585 220.346191,96.255165 208.447800,97.380615 
	C208.447800,115.813751 208.447800,133.882141 208.447800,152.669571 
	C213.681732,152.359985 218.699707,152.541168 223.528488,151.671677 
	C231.918182,150.161072 238.272324,145.524521 241.202621,137.240723 
	C244.677963,127.416107 244.810043,117.694656 238.870865,107.776573 
z"/>
<path fill="#F6F7FA" opacity="1.000000" stroke="none" 
	d="
M304.076904,166.462387 
	C306.844452,166.601974 309.164124,166.743103 311.832092,166.905411 
	C311.832092,169.882599 311.832092,172.752747 311.832092,176.219772 
	C239.721451,174.910507 168.713623,182.666946 99.293098,203.152725 
	C117.478630,193.891190 136.622879,187.762146 156.235397,183.042053 
	C200.737488,172.331818 245.990158,167.804489 291.661926,166.806580 
	C295.651581,166.719437 299.640015,166.579391 304.076904,166.462387 
z"/>
<path fill="#F3F4F8" opacity="1.000000" stroke="none" 
	d="
M132.445679,101.162384 
	C132.081070,97.863808 131.716431,95.041191 131.341309,92.137421 
	C134.066330,92.137421 137.196091,92.137421 139.796234,92.137421 
	C139.477524,94.641762 138.944077,97.029785 138.907333,99.425430 
	C138.718567,111.733253 138.764481,124.045143 138.523346,136.351578 
	C138.254196,150.086685 131.944992,157.018753 118.663559,158.546936 
	C104.865852,160.134537 93.226852,153.625259 90.569595,142.583786 
	C89.880173,139.719086 89.853920,136.652664 89.833015,133.676712 
	C89.753525,122.358444 89.872681,111.038475 89.745415,99.721077 
	C89.717140,97.206169 88.987656,94.699158 88.569275,92.115952 
	C93.425514,92.115952 98.881119,92.115952 104.048248,92.115952 
	C103.541443,94.179199 102.642899,96.178879 102.623093,98.187218 
	C102.495049,111.169312 102.360619,124.157188 102.616440,137.135529 
	C102.861877,149.587250 111.711525,155.820602 123.117928,151.953888 
	C128.368988,150.173767 131.644684,146.384750 131.982697,141.003113 
	C132.512634,132.565765 132.349518,124.083763 132.437012,115.620232 
	C132.485168,110.960083 132.445648,106.299011 132.445679,101.162384 
z"/>
<path fill="#F5F6F9" opacity="1.000000" stroke="none" 
	d="
M292.989563,143.908844 
	C292.073944,140.594925 290.419891,139.279144 287.135864,139.464523 
	C281.825500,139.764297 276.471985,139.333252 271.167267,139.679276 
	C269.623810,139.779938 267.633850,141.145386 266.814209,142.510742 
	C265.207123,145.187851 264.039551,148.201996 263.154175,151.213104 
	C262.577026,153.175934 262.818024,155.379333 262.678314,157.712204 
	C259.792084,157.712204 256.148926,157.712204 253.345108,157.712204 
	C262.984711,135.697311 272.769714,113.350395 282.880646,90.259102 
	C283.737793,91.887115 284.441284,93.038429 284.974487,94.263832 
	C292.725433,112.077591 300.406586,129.921906 308.228455,147.704391 
	C309.724518,151.105621 311.753479,154.272446 313.571198,157.611023 
	C307.891479,157.611023 301.851135,157.611023 295.670593,157.611023 
	C298.738037,152.423264 294.190094,148.711380 292.989563,143.908844 
M276.569580,118.145401 
	C274.486908,123.326401 272.404205,128.507401 270.247192,133.873398 
	C276.488312,133.873398 282.220947,133.873398 288.617737,133.873398 
	C285.510284,126.395523 282.599792,119.391533 279.317230,111.492256 
	C278.248169,114.119476 277.567963,115.791077 276.569580,118.145401 
z"/>
<path fill="#F8F9FB" opacity="1.000000" stroke="none" 
	d="
M169.575089,132.327301 
	C164.683365,129.780716 159.922897,127.723930 155.565445,125.018135 
	C147.314301,119.894516 144.324738,112.941467 146.320435,104.798790 
	C148.122726,97.445358 155.317627,91.881828 164.140411,91.068359 
	C165.463425,90.946388 166.804214,90.970261 168.135605,90.993698 
	C180.622620,91.213516 183.199615,94.262009 181.496719,107.353752 
	C178.648056,102.137115 175.192261,98.122429 169.472519,96.695099 
	C163.594482,95.228256 158.337845,97.346016 156.474030,102.104584 
	C154.651245,106.758430 156.427979,110.842621 162.046448,113.910217 
	C166.561615,116.375443 171.331604,118.369194 175.901489,120.739967 
	C185.046432,125.484192 188.309799,131.663132 187.033356,141.459427 
	C186.003311,149.364716 179.222107,156.349960 170.414078,157.929276 
	C166.884323,158.562180 163.118454,158.597809 159.549713,158.165421 
	C146.354599,156.566666 144.296204,153.632782 146.354233,139.894379 
	C147.734665,142.177261 148.830048,144.345551 150.254440,146.270355 
	C153.253036,150.322388 157.147095,152.941757 162.375870,153.229431 
	C168.476990,153.565109 173.025681,151.035339 174.866806,146.180573 
	C176.915176,140.779343 175.351028,136.488754 169.575089,132.327301 
z"/>
<path fill="#F3F4F7" opacity="1.000000" stroke="none" 
	d="
M160.568054,176.243958 
	C161.639130,176.690643 162.355774,177.010376 163.847305,177.675827 
	C138.633575,176.659424 114.265717,175.677109 89.495926,174.678604 
	C89.495926,172.890381 89.495926,170.172531 89.495926,166.781799 
	C113.465416,167.224289 137.105438,169.503677 160.568054,176.243958 
z"/>
<path fill="#FBFCFD" opacity="1.000000" stroke="none" 
	d="
M176.987991,287.005890 
	C174.760773,285.907074 172.829941,284.953217 171.153458,283.667725 
	C169.524872,282.418915 168.157181,280.829926 166.674927,279.390320 
	C166.269043,279.656189 165.863144,279.922058 165.457245,280.187927 
	C165.314041,282.257385 165.170837,284.326843 165.006485,286.701813 
	C163.267776,286.701813 161.499374,286.701813 159.360443,286.701813 
	C159.360443,279.186981 159.360443,271.462402 159.360443,263.352539 
	C164.005539,263.352539 168.982666,262.796082 173.777054,263.494385 
	C179.674408,264.353302 181.981903,271.354675 178.472229,276.407532 
	C177.737274,277.465668 176.723450,278.330109 175.772934,279.354034 
	C177.320557,281.795776 178.789581,284.113495 180.499573,286.811401 
	C179.010132,286.904663 178.202896,286.955231 176.987991,287.005890 
M167.560242,268.369019 
	C166.493927,270.230835 165.427628,272.092651 163.707443,275.096161 
	C168.597595,274.608521 172.761520,276.835236 173.625153,271.934143 
	C174.221603,268.549133 170.901123,268.461853 167.560242,268.369019 
z"/>
<path fill="#FAFAFC" opacity="1.000000" stroke="none" 
	d="
M88.990005,310.074402 
	C88.990005,307.605469 88.990005,305.627045 88.990005,303.035309 
	C95.970093,303.364105 103.165047,301.155762 108.557426,307.473602 
	C111.587967,311.024261 111.966942,316.952911 109.423019,321.077545 
	C104.599632,328.898071 96.722443,326.568604 88.990005,327.122772 
	C88.990005,321.394165 88.990005,315.979553 88.990005,310.074402 
M103.256142,311.074524 
	C100.847542,310.114258 98.438934,309.153992 95.466797,307.969025 
	C95.466797,313.114929 95.466797,316.996857 95.466797,320.850281 
	C103.215462,321.491577 105.590355,318.745270 103.256142,311.074524 
z"/>
<path fill="#FBFCFD" opacity="1.000000" stroke="none" 
	d="
M242.106750,326.999390 
	C241.092468,326.024506 240.199905,325.099060 240.068268,324.075684 
	C239.815262,322.108765 240.281372,320.028564 239.895355,318.106567 
	C239.620224,316.736664 238.439606,315.548645 237.663055,314.279449 
	C236.778107,315.608643 235.355011,316.851807 235.125732,318.285828 
	C234.710831,320.880829 235.008224,323.589722 235.008224,326.627502 
	C233.035141,326.627502 231.182480,326.627502 229.057098,326.627502 
	C229.057098,320.868408 229.057098,315.127319 229.057098,308.720551 
	C234.444000,309.440979 239.572556,310.180725 244.718643,310.766602 
	C245.672806,310.875214 246.759109,310.507629 247.679825,310.114685 
	C253.974930,307.428284 257.892426,309.836304 257.996979,316.554962 
	C258.048370,319.858551 258.005920,323.163635 258.005920,326.734253 
	C255.945618,326.734253 254.201111,326.734253 251.801239,326.734253 
	C251.801239,323.851410 252.060120,320.883270 251.685822,317.997223 
	C251.513351,316.667511 250.101715,315.498535 249.251953,314.256683 
	C248.233932,315.512787 246.757721,316.628204 246.317444,318.061768 
	C245.802826,319.737396 246.020706,321.710083 246.227600,323.518799 
	C246.562454,326.446136 245.306870,327.432709 242.106750,326.999390 
z"/>
<path fill="#F9FAFB" opacity="1.000000" stroke="none" 
	d="
M223.178711,324.036865 
	C219.704117,327.763245 216.071304,327.786438 211.992950,324.959656 
	C211.992950,327.545502 211.992950,329.514923 211.992950,331.746277 
	C210.036865,331.746277 208.270920,331.746277 206.152863,331.746277 
	C206.152863,324.333862 206.152863,316.822296 206.152863,309.430206 
	C210.147400,309.292572 213.991760,308.929047 217.815750,309.080292 
	C224.222794,309.333679 226.928162,316.600830 223.178711,324.036865 
M214.693481,314.318726 
	C213.869781,316.006866 212.769882,317.639893 212.414200,319.421478 
	C212.323883,319.873718 214.666382,321.439667 215.772614,321.327362 
	C216.893158,321.213623 218.899216,319.212280 218.725235,318.806915 
	C218.000641,317.118683 216.600418,315.720398 214.693481,314.318726 
z"/>
<path fill="#EFF1F5" opacity="1.000000" stroke="none" 
	d="
M116.615097,186.352951 
	C107.338844,187.854568 98.498444,189.280289 89.393219,190.748703 
	C89.393219,188.032913 89.393219,185.291519 89.393219,182.041412 
	C105.629044,182.041412 121.764572,182.041412 137.900101,182.041412 
	C137.948944,182.534302 137.997787,183.027176 138.046631,183.520065 
	C131.048065,184.439056 124.049507,185.358047 116.615097,186.352951 
z"/>
<path fill="#F5F6F9" opacity="1.000000" stroke="none" 
	d="
M223.979553,268.983582 
	C231.533569,269.588837 233.147720,271.275513 233.203293,278.219208 
	C233.225677,281.015900 233.206970,283.812927 233.206970,286.970398 
	C228.861893,286.970398 224.843353,287.477814 221.058548,286.757324 
	C219.153580,286.394684 216.302963,283.769470 216.340424,282.227234 
	C216.389435,280.210693 218.507751,277.685059 220.425766,276.448975 
	C221.981033,275.446655 224.554596,276.024414 226.710403,275.899414 
	C225.731781,270.723236 217.551437,277.903534 217.961258,270.121796 
	C219.761810,269.755646 221.656219,269.370453 223.979553,268.983582 
z"/>
<path fill="#F8F9FB" opacity="1.000000" stroke="none" 
	d="
M123.951157,327.006714 
	C116.339340,325.856293 112.946411,322.089996 113.968178,316.381653 
	C114.850136,311.454376 119.664780,308.199707 124.716118,309.116058 
	C129.369492,309.960205 131.602982,313.210602 131.869705,319.914795 
	C128.285645,319.914795 124.707855,319.914795 121.130081,319.914795 
	C121.073891,320.392883 121.017700,320.870941 120.961510,321.349030 
	C124.322403,321.699493 127.683296,322.049957 131.044189,322.400452 
	C131.134979,323.038300 131.225769,323.676178 131.316544,324.314056 
	C128.997314,325.210327 126.678093,326.106628 123.951157,327.006714 
z"/>
<path fill="#F8F9FB" opacity="1.000000" stroke="none" 
	d="
M155.018463,312.146912 
	C158.501114,308.694824 162.256012,308.004822 166.221451,310.037933 
	C170.053574,312.002686 171.069580,315.562958 170.866501,320.083374 
	C167.193039,320.083374 163.652283,320.083374 160.111526,320.083374 
	C160.071014,320.518524 160.030487,320.953644 159.989975,321.388794 
	C163.353241,321.740143 166.716522,322.091492 171.063217,322.545563 
	C165.780640,327.642303 160.381592,328.136627 156.141541,324.865479 
	C152.337173,321.930511 151.876816,317.778412 155.018463,312.146912 
z"/>
<path fill="#F8F9FB" opacity="1.000000" stroke="none" 
	d="
M267.425018,321.467377 
	C270.833649,321.945831 273.942413,322.113312 278.246979,322.345215 
	C272.914429,327.541992 267.884003,328.190796 263.593567,325.151459 
	C259.846466,322.496979 258.924011,318.830719 260.512085,314.629578 
	C262.035797,310.598694 266.257812,308.382629 270.573364,309.096893 
	C275.248016,309.870636 277.495178,313.026398 277.877869,319.357117 
	C274.293945,319.958740 270.709564,320.557587 267.425018,321.467377 
z"/>
<path fill="#F5F6F9" opacity="1.000000" stroke="none" 
	d="
M202.312469,314.994507 
	C203.432968,321.200348 200.948746,325.333649 195.633118,326.729980 
	C190.719910,328.020599 185.546936,325.543793 183.687302,321.010406 
	C182.016769,316.938019 183.872665,312.419159 188.150925,310.142151 
	C193.284225,307.410065 198.443756,309.068878 202.312469,314.994507 
M189.187271,317.630798 
	C190.569962,318.940491 191.783798,320.635712 193.425247,321.354523 
	C194.014023,321.612335 196.198288,319.691895 196.592484,318.433136 
	C196.872528,317.538849 195.302750,315.040649 194.681427,315.082458 
	C192.877045,315.203949 191.134537,316.244171 189.187271,317.630798 
z"/>
<path fill="#FDFDFE" opacity="1.000000" stroke="none" 
	d="
M198.203369,286.993713 
	C194.727737,286.620575 191.906113,285.912170 188.598663,286.754364 
	C185.351379,287.581238 183.061798,284.847443 182.901978,281.338318 
	C182.722122,277.388672 182.860596,273.424469 182.860596,269.238190 
	C184.969513,269.238190 186.717804,269.238190 189.004807,269.238190 
	C189.004807,272.216827 188.754868,275.195557 189.118973,278.097229 
	C189.280899,279.387756 190.680878,280.522949 191.518921,281.728668 
	C192.344070,280.480316 193.703369,279.303772 193.882812,277.968628 
	C194.253159,275.213104 193.994354,272.373016 193.994354,269.284973 
	C196.019531,269.284973 197.765259,269.284973 200.102097,269.284973 
	C200.102097,274.778625 200.128220,280.369904 200.039658,285.959351 
	C200.034119,286.309174 199.130737,286.644775 198.203369,286.993713 
z"/>
<path fill="#FDFDFE" opacity="1.000000" stroke="none" 
	d="
M298.445618,312.075256 
	C298.909058,317.064026 299.148071,321.689850 299.410156,326.762207 
	C297.231140,326.870911 295.474548,326.958527 292.986359,327.082642 
	C292.986359,323.818756 293.192719,320.707062 292.882202,317.647797 
	C292.762299,316.466614 291.469299,315.404480 290.710785,314.288116 
	C289.810913,315.442017 288.299988,316.514832 288.134033,317.766083 
	C287.748291,320.674652 288.011169,323.669220 288.011169,326.805176 
	C285.806213,326.805176 284.058380,326.805176 282.063171,326.805176 
	C282.063171,320.868500 282.063171,315.126282 282.063171,309.373993 
	C286.241821,309.267609 290.233856,308.932007 294.186829,309.191498 
	C295.580750,309.282990 296.879150,310.829895 298.445618,312.075256 
z"/>
<path fill="#F6F7FA" opacity="1.000000" stroke="none" 
	d="
M144.268341,313.097290 
	C145.046036,308.095825 148.316513,308.755493 152.083710,309.259094 
	C149.936707,314.685822 148.132370,320.106049 145.580246,325.147736 
	C144.860107,326.570404 141.950546,326.884766 139.651886,327.877258 
	C136.948914,321.247681 134.598282,315.482239 132.038712,309.204346 
	C134.286499,309.099060 136.162827,309.011169 138.435425,308.904724 
	C139.588486,311.882782 140.741837,314.861603 142.236420,318.721710 
	C143.083450,316.372711 143.607208,314.920197 144.268341,313.097290 
z"/>
<path fill="#FDFDFE" opacity="1.000000" stroke="none" 
	d="
M303.815643,318.133484 
	C303.806610,317.026672 304.077820,316.112915 303.744415,315.740692 
	C301.088989,312.775818 301.309723,309.948822 303.771271,307.007812 
	C304.119354,306.591919 303.955017,305.747101 304.057526,304.837830 
	C305.905701,304.837830 307.652802,304.837830 308.353424,304.837830 
	C310.301910,306.976318 311.763702,308.580658 313.225494,310.184998 
	C314.888977,312.798218 314.004303,314.667908 309.925446,314.073364 
	C310.548126,317.466797 307.738464,321.888672 314.490967,321.694031 
	C314.656097,322.136414 314.821228,322.578827 314.986359,323.021210 
	C313.679626,324.321075 312.206512,326.826385 311.100281,326.673737 
	C308.682709,326.340027 306.153198,325.000031 304.275818,323.371887 
	C303.397247,322.609985 303.925232,320.226196 303.815643,318.133484 
z"/>
<path fill="#FAFBFC" opacity="1.000000" stroke="none" 
	d="
M204.172363,269.495605 
	C206.468201,269.389282 208.495270,269.649567 210.522354,269.909851 
	C210.467010,270.333466 210.411682,270.757080 210.356339,271.180695 
	C211.884827,270.379486 213.413300,269.578247 215.543259,268.461731 
	C215.684052,270.925018 215.782501,272.647552 215.903091,274.757446 
	C208.998932,276.042542 209.874802,281.402130 210.047287,286.670410 
	C208.015549,286.670410 206.151733,286.670410 203.903595,286.670410 
	C203.903595,281.023346 203.903595,275.442780 204.172363,269.495605 
z"/>
<path fill="#FFFFFF" opacity="1.000000" stroke="none" 
	d="
M180.177856,307.049805 
	C180.177994,313.822937 180.177994,320.103180 180.177994,326.763611 
	C178.177750,326.861938 176.427582,326.947937 174.332520,327.050903 
	C174.332520,319.004150 174.332520,311.133301 174.332520,302.833832 
	C176.001083,302.742249 177.732559,302.647217 179.828384,302.532166 
	C179.957535,304.020111 180.067612,305.288513 180.177856,307.049805 
z"/>
<path fill="#FFFFFF" opacity="1.000000" stroke="none" 
	d="
M237.002014,277.956787 
	C237.002014,272.679932 237.002014,267.897400 237.002014,262.850647 
	C239.104645,262.850647 240.839401,262.850647 242.879822,262.850647 
	C242.879822,270.760101 242.879822,278.628998 242.879822,286.748474 
	C241.050446,286.748474 239.308838,286.748474 237.002014,286.748474 
	C237.002014,283.981537 237.002014,281.216370 237.002014,277.956787 
z"/>
<path fill="#233A74" opacity="1.000000" stroke="none" 
	d="
M239.043121,108.105080 
	C244.810043,117.694656 244.677963,127.416107 241.202621,137.240723 
	C238.272324,145.524521 231.918182,150.161072 223.528488,151.671677 
	C218.699707,152.541168 213.681732,152.359985 208.447800,152.669571 
	C208.447800,133.882141 208.447800,115.813751 208.447800,97.380615 
	C220.346191,96.255165 231.287323,96.962585 239.043121,108.105080 
z"/>
<path fill="#263C76" opacity="1.000000" stroke="none" 
	d="
M276.728668,117.804039 
	C277.567963,115.791077 278.248169,114.119476 279.317230,111.492256 
	C282.599792,119.391533 285.510284,126.395523 288.617737,133.873398 
	C282.220947,133.873398 276.488312,133.873398 270.247192,133.873398 
	C272.404205,128.507401 274.486908,123.326401 276.728668,117.804039 
z"/>
<path fill="#364B80" opacity="1.000000" stroke="none" 
	d="
M167.961060,268.365173 
	C170.901123,268.461853 174.221603,268.549133 173.625153,271.934143 
	C172.761520,276.835236 168.597595,274.608521 163.707443,275.096161 
	C165.427628,272.092651 166.493927,270.230835 167.961060,268.365173 
z"/>
<path fill="#2E447B" opacity="1.000000" stroke="none" 
	d="
M103.483429,311.389587 
	C105.590355,318.745270 103.215462,321.491577 95.466797,320.850281 
	C95.466797,316.996857 95.466797,313.114929 95.466797,307.969025 
	C98.438934,309.153992 100.847542,310.114258 103.483429,311.389587 
z"/>
<path fill="#2E447B" opacity="1.000000" stroke="none" 
	d="
M215.070740,314.267242 
	C216.600418,315.720398 218.000641,317.118683 218.725235,318.806915 
	C218.899216,319.212280 216.893158,321.213623 215.772614,321.327362 
	C214.666382,321.439667 212.323883,319.873718 212.414200,319.421478 
	C212.769882,317.639893 213.869781,316.006866 215.070740,314.267242 
z"/>
<path fill="#364B80" opacity="1.000000" stroke="none" 
	d="
M189.277527,317.277374 
	C191.134537,316.244171 192.877045,315.203949 194.681427,315.082458 
	C195.302750,315.040649 196.872528,317.538849 196.592484,318.433136 
	C196.198288,319.691895 194.014023,321.612335 193.425247,321.354523 
	C191.783798,320.635712 190.569962,318.940491 189.277527,317.277374 
z"/>
</svg>